<svg xmlns="http://www.w3.org/2000/svg" viewBox="0 0 120 120">
  <defs>
    <radialGradient id="g" cx="30%" cy="30%">
      <stop offset="0%" stop-color="#b58bff" />
      <stop offset="60%" stop-color="#8a44f7" />
      <stop offset="100%" stop-color="#6023d4" />
    </radialGradient>
  </defs>
  <rect width="120" height="120" rx="24" fill="url(#g)" />

  <g transform="translate(30,36) scale(0.9)" fill="#fff">
    <rect x="12" y="20" width="36" height="28" rx="4" />
    <path d="M30 12a10 10 0 0 0-10 10v4h4v-4a6 6 0 0 1 12 0v4h4v-4a10 10 0 0 0-10-10z" fill="#fff" opacity="0.95"/>
    <circle cx="30" cy="34" r="3" fill="#8a44f7" />
  </g>

  <g fill="#ffd86b" opacity="0.95">
    <path d="M16 18 L19 22 L24 23 L20 26 L21 31 L16 28 L11 31 L12 26 L8 23 L13 22Z" transform="translate(70,10) scale(0.6)"/>
    <path d="M16 18 L19 22 L24 23 L20 26 L21 31 L16 28 L11 31 L12 26 L8 23 L13 22Z" transform="translate(92,46) scale(0.45)"/>
  </g>
</svg>
